PathFileType        4      (X/Y/Z)      C:\Users\pc\Desktop\IMUTRC\Sujet_06\Sujet_06_velo_60.trc         
DataRate	CameraRate	NumFrames	NumMarkers	Units	OrigDataRate	OrigDataStartFrame	OrigNumFrames
60.0	60.0	4	64	mm	60.0	586	936
Frame#	Time	pHipOrigin			pRightASI			pLeftASI			pRightCSI			pLeftCSI			pRightIschialTub			pLeftIschialTub			pSacrum			pL5SpinalProcess			pL3SpinalProcess			pT12SpinalProcess			pIJ			pT4SpinalProcess			pT8SpinalProcess			pPX			pC7SpinalProcess			pTopOfHead			pRightAuricularis			pLeftAuricularis			pBackOfHead			pRightAcromion			pLeftAcromion			pRightArmLatEpicondyle			pRightArmMedEpicondyle			pLeftArmLatEpicondyle			pLeftArmMedEpicondyle			pRightUlnarStyloid			pRightRadialStyloid			pRightOlecranon			pLeftUlnarStyloid			pLeftRadialStyloid			pLeftOlecranon			pRightTopOfHand			pRightPinky			pRightBallHand			pLeftTopOfHand			pLeftPinky			pLeftBallHand			pRightGreaterTrochanter			pRightKneeLatEpicondyle			pRightKneeMedEpicondyle			pRightPatella			pLeftGreaterTrochanter			pLeftKneeLatEpicondyle			pLeftKneeMedEpicondyle			pLeftPatella			pRightTibialTub			pRightLatMalleolus			pRightMedMalleolus			pLeftTibialTub			pLeftLatMalleolus			pLeftMedMalleolus			pRightHeelFoot			pRightFirstMetatarsal			pRightFifthMetatarsal			pRightPivotFoot			pRightHeelCenter			pRightToe			pLeftHeelFoot			pLeftFirstMetatarsal			pLeftFifthMetatarsal			pLeftPivotFoot			pLeftHeelCenter			pLeftToe			
		X1	Y1	Z1	X2	Y2	Z2	X3	Y3	Z3	X4	Y4	Z4	X5	Y5	Z5	X6	Y6	Z6	X7	Y7	Z7	X8	Y8	Z8	X9	Y9	Z9	X10	Y10	Z10	X11	Y11	Z11	X12	Y12	Z12	X13	Y13	Z13	X14	Y14	Z14	X15	Y15	Z15	X16	Y16	Z16	X17	Y17	Z17	X18	Y18	Z18	X19	Y19	Z19	X20	Y20	Z20	X21	Y21	Z21	X22	Y22	Z22	X23	Y23	Z23	X24	Y24	Z24	X25	Y25	Z25	X26	Y26	Z26	X27	Y27	Z27	X28	Y28	Z28	X29	Y29	Z29	X30	Y30	Z30	X31	Y31	Z31	X32	Y32	Z32	X33	Y33	Z33	X34	Y34	Z34	X35	Y35	Z35	X36	Y36	Z36	X37	Y37	Z37	X38	Y38	Z38	X39	Y39	Z39	X40	Y40	Z40	X41	Y41	Z41	X42	Y42	Z42	X43	Y43	Z43	X44	Y44	Z44	X45	Y45	Z45	X46	Y46	Z46	X47	Y47	Z47	X48	Y48	Z48	X49	Y49	Z49	X50	Y50	Z50	X51	Y51	Z51	X52	Y52	Z52	X53	Y53	Z53	X54	Y54	Z54	X55	Y55	Z55	X56	Y56	Z56	X57	Y57	Z57	X58	Y58	Z58	X59	Y59	Z59	X60	Y60	Z60	X61	Y61	Z61	X62	Y62	Z62	X63	Y63	Z63	X64	Y64	Z64	
586	9.75	0.0	1249.97291	7.653876616262013E-14	42.38788000000002	1327.17522	128.1030000000001	76.49779999999998	1341.85246	-99.39429999999993	7.808290000000014	1387.70418	108.49420000000009	36.63439999999999	1400.03306	-83.30803999999992	-56.243199999999995	1198.9548	37.51504000000008	-41.859500000000004	1205.11925	-58.41543999999992	-57.29997	1270.1688	-7.279909999999915	-25.59712	1360.75675	2.1135200000000864	20.66556	1470.48384	12.270180000000089	65.3431	1569.93685	20.31331000000009	310.39438	1654.94746	64.05150000000006	180.00173	1731.26913	37.63246000000009	120.47083	1662.81446	28.70869000000009	232.95724	1558.13635	52.661960000000064	223.38767	1777.64923	45.02979000000008	503.07726	1808.47144	43.03368000000005	405.15068	1791.62196	122.11468000000008	396.10949	1787.98201	-22.250699999999938	390.35601	1845.69293	49.19813000000006	202.54598000000001	1747.29668	224.03347000000008	258.61306	1735.26134	-132.3300399999999	359.06413	1495.7287	225.38378000000003	348.02684	1488.09653	163.79806000000005	432.62648	1501.18864	-137.02675999999997	402.56748	1474.41734	-88.53313999999996	519.80931	1309.62123	269.29809	552.27538	1333.98546	236.77332000000004	335.16957	1482.51918	212.52651000000006	633.29377	1354.88586	-160.39294	646.38588	1370.03277	-112.36899	409.14289	1483.22369	-138.37706999999997	703.27488	1328.52552	232.54627	635.05504	1297.35106	264.95363	566.83521	1303.92646	253.44667000000004	800.20341	1360.46321	-85.83253000000002	740.6725	1344.0834	-139.19899	671.16107	1345.90338	-138.55319	-7.045079999999982	1211.75336	145.71569000000008	220.86319000000003	908.16922	139.72737000000004	238.53459	915.62526	68.45467000000002	260.55046	938.28693	112.01674000000003	50.196179999999984	1253.37803	-142.4279899999999	397.40109	1108.13201	-92.23180999999997	388.947	1098.15148	-19.608799999999977	405.03326	1141.71355	-46.732349999999975	255.32536	864.72458	109.84450000000002	2.641900000000014	589.84913	112.77995000000004	12.563720000000007	586.50272	54.59935000000004	433.56582	1068.91441	-53.07291999999999	308.86795	722.64884	-115.77411	305.40412	718.24567	-56.947709999999994	-71.27269999999999	544.64321	69.39402000000004	57.29997000000001	447.06889	74.61911000000003	39.04147000000002	455.99265	148.24018000000004	64.87342000000001	438.43867	116.06765000000001	-41.624669999999995	523.91894	79.25712000000003	122.70177000000001	393.11533	135.97	246.75385	652.08065	-88.12217999999999	395.75724	606.6399	-45.49946000000001	398.45785	606.28764	-121.82113	417.7144	600.06449	-81.84032000000002	283.0947	642.98076	-86.83057999999998	490.51353	577.75508	-79.19841000000002	
587	9.767	0.0	1249.97291	7.653876616262013E-14	41.85950000000001	1327.17522	128.2791200000001	76.90875999999999	1341.85246	-99.10075999999992	7.3973300000000135	1387.64547	108.55291000000008	36.927949999999996	1400.03306	-83.13191999999991	-56.419329999999995	1198.9548	37.28020000000008	-41.62467000000001	1205.11925	-58.59155999999992	-57.24126	1270.1688	-7.514749999999915	-25.59712	1360.75675	2.0548100000000864	20.48943	1470.48384	12.50501000000009	64.99084	1569.93685	20.72427000000009	309.74858	1655.35842	65.28439000000006	179.29723	1731.44526	38.630510000000086	119.94245	1662.93188	29.41320000000009	232.54627	1558.42989	53.48388000000006	222.62445	1777.94277	46.26268000000008	502.31404	1808.8824	44.61883000000005	404.32875	1791.91551	123.64111000000007	395.34628	1788.45168	-20.782979999999938	389.5928	1846.1039	50.72456000000006	201.54793000000004	1747.23797	225.1489400000001	258.26081	1735.90714	-131.1558599999999	358.18349	1495.84612	226.14699000000002	347.20491	1488.21395	164.56127000000006	432.33293	1501.83443	-136.32224999999997	402.15652	1474.8283	-88.06346999999995	519.10481	1309.73865	269.82648	551.51216	1334.10288	237.24299000000002	334.34764	1482.57789	213.34844000000007	632.76539	1355.06198	-159.86455	645.8575	1370.15019	-111.7819	408.79063	1483.75207	-137.78997999999999	702.45295	1328.64294	232.89853	634.35054	1297.46847	265.36459	566.07199	1304.04388	253.97505000000004	799.67503	1360.4045	-85.18673000000001	740.08541	1344.0834	-138.6119	670.57398	1346.0208	-137.9661	-6.281859999999982	1212.28174	145.8331100000001	229.90437000000003	915.09688	140.96026000000003	247.16481	922.61163	69.62885000000003	268.711	946.15393	112.95608000000003	50.489719999999984	1251.61676	-142.31056999999993	392.2347	1094.39411	-90.99891999999997	383.48706	1085.1768	-18.31719999999998	401.09976	1127.97565	-45.67558999999998	261.95947	871.06515	110.95997000000003	-1.232889999999986	606.34635	114.18897000000004	8.395380000000007	602.64769	56.008370000000035	429.39748	1056.46811	-51.840029999999985	313.21241	707.38451	-115.18702	309.74858	702.86392	-56.36061999999999	-76.90875999999999	563.95847	71.15528000000005	47.847820000000006	461.5113	76.14555000000003	30.176420000000018	471.3157	149.82532000000003	55.18644000000001	452.70495	117.59409000000002	-48.08265999999999	542.11873	80.95968000000003	111.31223000000001	405.26809	137.37901000000002	252.80087	635.28988	-87.76992999999999	402.6849	593.48909	-44.67753000000001	405.67906	593.25425	-120.99921	424.99431	587.50077	-80.95968000000002	289.31786	627.07062	-86.36090999999999	498.26312	566.95263	-78.08294000000002	
588	9.783	0.0	1249.97291	7.653876616262013E-14	41.272410000000015	1327.11651	128.51396000000008	77.31972999999999	1341.91117	-98.74850999999992	6.927660000000014	1387.64547	108.61161000000008	37.280199999999994	1400.09177	-82.95578999999991	-56.595459999999996	1198.89609	37.04537000000008	-41.38983000000001	1205.11925	-58.767689999999924	-57.24126	1270.1688	-7.749589999999915	-25.65582	1360.69805	1.9961100000000864	20.31331	1470.48384	12.681140000000088	64.57988	1569.99556	21.252650000000088	309.10278	1655.8868	66.69340000000005	178.53401	1731.7388	39.804690000000086	119.35536	1663.108	30.23513000000009	232.13531	1558.78215	54.48193000000006	221.80253	1778.29502	47.61298000000008	501.4334	1809.35208	46.38009000000005	403.38941	1792.26776	125.28496000000007	394.46564	1789.03877	-19.08041999999994	388.65345	1846.57357	52.485830000000064	200.37375000000003	1747.23797	226.32312000000007	257.90855	1736.67036	-129.80555999999993	357.24415	1495.90483	227.02763000000002	346.20686	1488.33137	165.44191000000006	432.03939	1502.59765	-135.73515999999998	401.68685	1475.29798	-87.71121999999995	518.22417	1309.79736	270.41357	550.63153	1334.22029	237.77137000000002	333.4083	1482.69531	214.17036000000004	632.11959	1355.23811	-159.27746	645.2117	1370.26761	-111.25352	408.43838	1484.39787	-137.32030999999998	701.57232	1328.76036	233.19207	633.4699	1297.58589	265.77556	565.19136	1304.1613	254.44472000000002	798.97052	1360.22837	-84.54093000000002	739.3809	1344.02469	-137.9661	669.92818	1346.07951	-137.37901	-5.518639999999983	1212.86883	145.95053000000007	239.59135000000003	922.90518	142.19315000000003	256.44083	930.53734	70.74432000000003	277.34122	954.96028	113.89542000000003	50.72455999999998	1249.79678	-142.2518599999999	386.07026	1079.59945	-89.88344999999997	376.91166	1071.08664	-17.143019999999982	396.1682	1113.00486	-44.73623999999998	269.3568	878.46248	112.01674000000003	-3.463829999999986	623.6655	115.89153000000005	5.929610000000007	619.55587	57.652220000000035	424.17239	1042.84762	-50.72455999999998	316.03044	691.29825	-114.71735	312.56661	686.60153	-55.89094999999999	-80.84226999999998	584.4479	73.09268000000006	39.687270000000005	477.06918	77.67198000000003	22.66167000000002	487.51938	151.35175000000004	46.791060000000016	467.91058	119.06181000000002	-52.896789999999996	561.43398	82.83837000000003	101.03816000000002	418.24278	138.67061000000004	257.14534	617.85331	-87.53508999999998	407.79258	579.34022	-43.796900000000015	411.02157	579.16409	-120.11857000000003	430.33683	573.82158	-80.02034000000003	293.89716	610.45598	-85.94995	504.0166	554.85858	-76.85006000000003	
589	9.8	0.0	1249.97291	7.653876616262013E-14	40.802740000000014	1327.17522	128.6313800000001	77.73068999999998	1341.85246	-98.45495999999993	6.457990000000013	1387.64547	108.61161000000008	37.632459999999995	1400.03306	-82.83836999999991	-56.71287999999999	1198.9548	36.81053000000008	-41.15500000000001	1205.11925	-58.943819999999924	-57.18255	1270.1688	-7.984419999999915	-25.65582	1360.69805	1.8786900000000863	20.13718	1470.48384	12.857270000000089	64.28633	1570.05427	21.663610000000087	308.45698	1656.29776	67.86758000000006	177.8295	1731.91493	40.802740000000085	118.82698	1663.22542	30.93963000000009	231.72435	1559.07569	55.303860000000064	220.9806	1778.58857	48.845870000000076	500.61148	1809.88046	48.14136000000005	402.45006	1792.62002	126.87011000000007	393.76113	1789.62586	-17.55398999999994	387.83153	1847.04324	54.129680000000064	199.25828000000004	1747.17927	227.3798800000001	257.67372	1737.43357	-128.63137999999992	356.3048	1495.90483	227.73214000000002	345.26752	1488.39008	166.14642000000006	431.80455	1503.30216	-135.26548999999997	401.21717	1475.65023	-87.59379999999996	517.40225	1309.85607	270.88324	549.7509	1334.279	238.24104000000003	332.46896	1482.69531	214.93358000000006	631.4738	1355.29682	-158.80779	644.62461	1370.26761	-110.72514	408.08612	1485.04367	-137.02675999999997	700.69168	1328.81907	233.54433	632.64798	1297.6446	266.12781	564.31072	1304.22001	254.85569000000004	798.32472	1360.05225	-83.95384000000001	738.7351	1343.90728	-137.43772	669.22367	1346.07951	-136.90934	-4.696719999999982	1213.51463	146.06794000000008	249.45446000000004	931.41798	143.30862000000002	265.83426	939.16756	71.74237000000002	286.08886	964.52984	114.71735000000002	50.72455999999998	1247.74197	-142.19314999999992	378.67293	1063.86544	-89.12022999999998	369.22078	1056.23327	-16.321099999999984	390.23859	1097.15343	-44.20785999999998	277.04768	886.68174	113.07350000000002	-4.1683399999999855	641.16078	117.47667000000004	4.990260000000007	636.7576	59.23736000000004	417.7144	1028.40521	-49.90262999999999	317.26333	674.68361	-114.30639	313.68208	669.86947	-55.479989999999994	-83.13191999999998	604.87863	74.91266000000006	33.22928000000001	492.97931	79.08100000000003	16.849480000000018	504.0166	152.87819000000002	40.15694000000001	483.58587	120.52954000000003	-56.00836999999999	580.80795	84.54093000000005	92.52535000000002	431.80455	139.90350000000004	259.72853	600.1232	-87.24154999999999	410.96286	564.54556	-43.092390000000016	414.42669	564.36943	-119.35536000000003	433.68324	559.43788	-79.19841000000002	296.59777	593.37167	-85.53898	507.77397	541.9426	-75.79329000000003	
